SplineFontDB: 1.0
FontName: Kenny
FullName: Kenny
FamilyName: Kenny
Weight: Medium
Copyright: Created by Pengwyn Parc,42,, with FontForge 1.0 (http://fontforge.sf.net)
Comments: 2006-8-14: Created.
Version: 001.000
ItalicAngle: 0
UnderlinePosition: -100
UnderlineWidth: 50
Ascent: 800
Descent: 200
NeedsXUIDChange: 1
XUID: [1021 428 1463549931 12740317]
FSType: 8
PfmFamily: 17
TTFWeight: 500
TTFWidth: 5
LineGap: 90
VLineGap: 0
OS2TypoAscent: 0
OS2TypoAOffset: 1
OS2TypoDescent: 0
OS2TypoDOffset: 1
OS2TypoLinegap: 90
OS2WinAscent: 0
OS2WinAOffset: 1
OS2WinDescent: 0
OS2WinDOffset: 1
HheadAscent: 0
HheadAOffset: 1
HheadDescent: 0
HheadDOffset: 1
OS2Vendor: 'PfEd'
ScriptLang: 1
 1 latn 1 dflt 
LangName: 1033 
Encoding: ISO8859-1
UnicodeInterp: none
NameList: Adobe Glyph List
DisplaySize: -24
AntiAlias: 1
FitToEm: 1
WinInfo: 42 21 7
TeXData: 1 0 0 346030 173015 115343 0 1048576 115343 783286 444596 497025 792723 393216 433062 380633 303038 157286 324010 404750 52429 2506097 1059062 262144
BeginChars: 256 54
StartChar: b
Encoding: 98 98 1
Width: 432
Flags: HWO
TeX: 0 0 0 0
VStem: 51 93<0 150.8> 60 88.801<344.4 416.8>
Back
Fore
144 120 m 1x80
 303 201 309 222 321 336 c 1
 321 384 325.199 425.401 265.199 403.8 c 0
 198.077 379.636 163.2 330 144 236.4 c 0
 133.648 185.937 144 181.6 144 120 c 1x80
60 344.4 m 0x40
 60.6357 675.601 59.3994 652.8 33 732 c 1
 273 732 265.8 816 333 801.6 c 0
 434.6 779.827 422.545 650.506 337.8 638.399 c 0
 304.2 633.6 289.12 650.305 287.399 674.399 c 24
 285.863 695.894 311.452 705.6 333 705.6 c 1
 313.8 690 313.8 688.681 313.8 674.399 c 0
 313.8 661.6 326.011 650 336.6 650 c 0
 353 650 369.8 668.8 381 722.399 c 0
 386.956 750.906 356.91 780.075 328.2 775.199 c 0
 201 753.6 168 669 153.601 529.2 c 0
 148.994 484.47 148.801 438.8 148.801 394.8 c 1x40
 211.679 429.464 253.739 472.8 301.8 472.8 c 0
 357 472.8 404.815 428.361 390.599 362.401 c 0
 339 123 315 117 51 0 c 1x80
 51 150.4 59.8301 255.601 60 344.4 c 0x40
EndSplineSet
EndChar
StartChar: a
Encoding: 97 97 2
AltUni: 99
Width: 428
Flags: W
TeX: 0 0 0 0
VStem: 225 33.2289<478 478 484 484>
Back
Fore
315 314 m 0
 317.838 337.839 274.241 341.035 252 332 c 0
 156 293 110 252 84 138 c 0
 78.1826 112.493 88.1102 74.2342 114 78 c 0
 224 94 300 188 315 314 c 0
0 108 m 0
 0 234 81 326 312 392 c 0
 359.795 405.656 371.147 430.831 360 462 c 24
 342.895 509.831 307.641 532.219 258 543 c 21
 218.651 550.792 180 544 162 505 c 5
 155.075 496.729 168.66 470.431 186 463 c 24
 200.979 456.581 223.916 461.74 225 478 c 24
 226.216 496.235 235 492 189 508 c 1
 243 526 261.146 512.317 258 484 c 24
 253.839 446.554 217.386 422.327 180 427 c 24
 141.338 431.833 114 463.059 114 502 c 0
 114 592 192 612 252 612 c 0
 342.25 612 405.865 547.091 426 459 c 24
 450.173 353.245 336.182 299.837 348 192 c 24
 357.024 109.654 372 93 474 21 c 1
 390 0 372 0 273 -21 c 1
 339 87 359.329 33.584 294 108 c 1
 216 42 180.021 0 90 0 c 24
 35.1719 0 0 53.1875 0 108 c 0
EndSplineSet
EndChar
StartChar: d
Encoding: 100 100 3
Width: 453
Flags: W
TeX: 0 0 0 0
Back
Fore
84 153 m 0
 70.3604 120.999 116.732 65.3984 144 87 c 17
 258 108 267.115 74.4619 315 336 c 9
 323.905 356.199 284.304 379.708 267 366 c 24
 181.155 297.993 162 336 84 153 c 0
0 117 m 0
 0 369 240 462 345 426 c 1
 474 885 279 708 261 774 c 1
 396 807 465 708 492 708 c 1
 474 639 444.433 594.084 378 186 c 0
 357 57 456 6 543 57 c 1
 327 -123 300 81 291 99 c 1
 183 -9 165 -9 75 0 c 0
 21.0693 5.39355 0 62.7998 0 117 c 0
EndSplineSet
EndChar
StartChar: e
Encoding: 101 101 4
Width: 488
Flags: W
TeX: 0 0 0 0
HStem: 47 30<213.014 418.96> 220 80<122 172>
Back
Fore
0 248 m 1
 0 464.099 277.182 512 459 512 c 1
 459 425 462 437 441 362 c 1
 402 413 368.898 457.642 309 446 c 24
 218.174 428.348 146.402 388.997 122 300 c 5
 216 300 200.891 259.06 254 264 c 4
 340 272 292 312 356 363 c 5
 362 268 332 292 340 204 c 5
 274 204 214 220 130 220 c 5
 93.7471 179.862 168.028 77 258 77 c 0
 402 77 363 128 408 191 c 1
 447 101 435 96 459 0 c 1
 423 51 432.92 47 405 47 c 24
 339.215 47 339 -15 243 0 c 0
 109.763 20.8184 0 113.201 0 248 c 1
EndSplineSet
EndChar
StartChar: f
Encoding: 102 102 5
Width: 356
Flags: W
TeX: 0 0 0 0
Back
Fore
-3 417 m 1
 36 465 21 462 72 468 c 1
 123 771 237 768 303 777 c 0
 372.394 786.463 390 747 402 672 c 1
 398.612 618.592 387 567 321 561 c 1
 276 558 262.367 581.206 267 609 c 24
 273.009 645.055 273 660 339 669 c 1
 357 699 342 726 309 714 c 0
 204.525 676.009 216 642 165 468 c 1
 387 453 298.98 558.455 333 501 c 1
 292.799 367.146 315 345 300 240 c 1
 270 315 285 408 153 384 c 1
 114 -3 225 -3 252 0 c 1
 135 -66 120 30 -45 -18 c 1
 129 75 44.8623 215.213 60 372 c 24
 62.9014 402.055 30 390 -3 417 c 1
EndSplineSet
EndChar
StartChar: g
Encoding: 103 103 6
Width: 494
Flags: W
TeX: 0 0 0 0
VStem: 355.062 84<219.188 319.5>
Back
Fore
337.062 -36 m 0
 349.528 -17.2998 313.782 5.77344 292.062 0 c 24
 210.641 -21.6436 139.062 12 100.062 -99 c 0
 91.0078 -124.77 124.665 -154.017 151.062 -147 c 24
 232.701 -125.298 277.062 -126 337.062 -36 c 0
355.062 294 m 0
 355.062 340.335 313.602 383.674 268.062 375 c 24
 187.821 359.716 139.062 342 103.062 246 c 0
 86.0537 200.646 154.479 161.937 202.062 171 c 24
 277.271 185.325 355.062 201 355.062 294 c 0
1.06152 219 m 0
 25.0615 378 193.062 465 355.062 423 c 1
 391.062 480 418.34 498.858 475.062 510 c 24
 502.711 515.431 523.875 484.166 523.062 456 c 24
 522.241 427.589 498.333 414.698 472 404 c 24
 455.097 397.133 452 406 427.062 417 c 1
 470 428 459.761 431.098 466.062 450 c 24
 469.371 459.928 450.233 468.537 442.062 462 c 24
 420.753 444.953 421.062 432 406.062 402 c 1
 415.062 336 439.062 354 439.062 285 c 0
 439.062 153.376 346.062 99 157.062 99 c 1
 139.506 83.3525 103.062 39 163.062 39 c 1
 250.062 60 280.651 93.9637 358.062 84 c 24
 410.985 77.1885 466.062 53.2598 466.062 0 c 0
 466.062 -147 292.062 -183 121.062 -207 c 0
 61.71 -215.33 12.9791 -169.736 1.06152 -111 c 24
 -9.45898 -59.1475 61.2666 -49.8271 79.0615 0 c 1
 46.0615 60 59.1776 33.7647 61.0615 57 c 24
 62.9648 80.4688 61.0615 78 88.0615 111 c 1
 43.0615 141 -7.01074 165.52 1.06152 219 c 0
EndSplineSet
EndChar
StartChar: h
Encoding: 104 104 7
Width: 410
Flags: W
TeX: 0 0 0 0
VStem: 44.3652 88.7998<328.8 401.199>
Back
Fore
155.4 -81.6006 m 1
 407.4 24 366.601 225.6 371.4 350.399 c 0
 373.994 417.825 325.801 487.199 270.601 487.199 c 1
 215.371 495.113 173.083 439.211 133.165 379.199 c 1
 133.165 423.199 130.301 469.29 137.965 513.6 c 0
 155.4 614.399 156 753.6 283.2 775.199 c 0
 311.91 780.074 341.957 750.906 336 722.399 c 0
 324.801 668.8 308 650 291.601 650 c 0
 281.012 650 268.801 661.6 268.801 674.399 c 0
 268.801 688.68 268.801 690 288 705.6 c 1
 266.453 705.6 240.865 695.893 242.4 674.399 c 24
 244.122 650.306 259.2 633.6 292.801 638.399 c 0
 377.546 650.506 389.601 779.828 288 801.6 c 0
 220.801 816 228 732 -12 732 c 1
 14.4004 652.8 45 660 44.3652 328.8 c 0
 44.1953 240 64.2002 122.399 -43.7998 -9.60059 c 5
 78.6006 48 109.801 -31.2002 153 -24 c 5
 49.8008 156 162.043 338.235 229.165 362.399 c 0
 289.165 384 277.801 148.8 280.2 105.6 c 1
 273.636 -12 249 0 155.4 -81.6006 c 1
EndSplineSet
EndChar
StartChar: i
Encoding: 105 105 8
Width: 213
Flags: W
TeX: 0 0 0 0
Back
Fore
3 498 m 29
 51 573 l 29
 -6 627 l 29
 75 651 l 29
 129 732 l 29
 162 651 l 29
 267 648 l 21
 231.85 622.129 208.452 601.23 189 582 c 13
 210 480 l 29
 120 546 l 29
 3 498 l 29
54 393 m 1
 128.394 364.324 134.623 385.247 165 387 c 1
 120.548 -10.1094 63.7061 19.1025 -36 3 c 1
 28.5098 54.2695 92.8086 130.05 54 393 c 1
EndSplineSet
EndChar
StartChar: j
Encoding: 106 106 9
Width: 334
Flags: W
TeX: 0 0 0 0
VStem: 210 48<152 162>
Back
Fore
99 603 m 1
 156.124 617.146 216.98 626.364 228 744 c 1
 241.335 656.835 273.772 610.536 348 612 c 1
 288.277 575.83 252.203 582.78 237 462 c 1
 234.82 531.829 193.047 581.032 99 603 c 1
138 441 m 1
 282.007 368.031 271.117 438.016 315 459 c 1
 267.867 361.082 261 277 258 152 c 1
 241.54 16.5869 249.639 -215.282 129 -204 c 1
 56.2539 -201.769 11 -147 6 -54 c 1
 9.33887 26.875 20 61 69 84 c 1
 152 104 151 24 156 -12 c 1
 158.64 -48.1768 149.349 -76.5703 114 -81 c 1
 92.373 -76.6582 75.9805 -71.4131 78 -36 c 1
 84.9531 -8.5957 93.5938 -17.3457 103 -12 c 1
 94 -24 97.6211 -28.8281 94 -36 c 1
 96.2871 -64.7705 109.625 -59.6504 116 -64 c 1
 137.258 -58.3115 140.332 -36.9209 137 -10 c 1
 129 37 121 63 74 53 c 1
 34 31 30.4297 -6.41113 42 -55 c 1
 82 -138 75.7471 -125.621 134 -141 c 1
 215.197 -151.768 212.525 58.4828 210 162 c 0
 207 285 204 330 138 441 c 1
EndSplineSet
EndChar
StartChar: k
Encoding: 107 107 10
Width: 395
Flags: W
TeX: 0 0 0 0
Back
Fore
178 488 m 1
 180 542 216.74 577.002 251.7 558.2 c 24
 326.494 517.976 276.9 419 377.7 380.601 c 1
 314.296 355.534 189.247 321.985 163.5 256.4 c 1
 218.101 258.8 264.5 99.4004 386.1 56.6006 c 0
 410.608 47.9746 430.41 78.6875 432.3 104.601 c 24
 434.486 134.591 421.31 158.184 394.5 171.801 c 24
 377.976 180.194 362.096 160.731 356.7 143 c 24
 352.869 130.414 365.289 120.965 377.7 116.601 c 24
 390.343 112.155 396.6 107 411.3 123.801 c 1
 405 102.2 397.21 85.7789 379.8 90.2002 c 24
 353.796 96.8037 335.001 109.355 335.7 143 c 0
 341.055 177.69 361.783 199.474 388.2 191 c 24
 428.848 177.961 460.979 149.23 455.4 104.601 c 0
 447 37.4004 381.9 1.40039 329.4 1.40039 c 0
 199.2 44.6006 211.8 164.601 129.9 183.801 c 1
 121.916 106.473 130.449 37.333 186.6 -8.19922 c 1
 112.4 9.95117 48.7002 4.20996 -25.5 -18.5996 c 1
 50.0996 48.5996 100.8 643.199 0 756 c 1
 113.399 700.8 102.6 882.2 325.2 747.801 c 1
 187.984 804.846 139.903 657.22 119.4 493.4 c 9
 115.2 303.801 l 17
 197.058 326.952 219.86 388.78 260.1 462.2 c 24
 272.298 484.456 259.112 514.591 234.9 522.2 c 24
 210.2 529.962 208 524 178 488 c 1
EndSplineSet
EndChar
StartChar: l
Encoding: 108 108 11
Width: 239
Flags: W
TeX: 0 0 0 0
Back
Fore
-24 0 m 1
 10.9277 120.637 94.21 362.279 105 530.8 c 1
 113.15 591.437 33.875 614.763 0 658 c 1
 83.1748 652.128 150.541 686.462 205.8 751.601 c 9
 72.6006 79.2002 l 17
 114.601 -64.7998 228 24 240.601 158.4 c 9
 272.101 -14.4004 l 17
 246.796 -5.94238 223.8 -28.7998 188.101 -36 c 1
 95.7002 -21.5996 56.1729 22.127 -24 0 c 1
EndSplineSet
EndChar
StartChar: m
Encoding: 109 109 12
Width: 617
Flags: W
TeX: 0 0 0 0
VStem: 276.3 89.1<84 197.399>
Back
Fore
-53.0996 -2.40039 m 9
 41.4004 16.5 l 17
 50.9912 176.13 49.376 325.758 -12.5996 421.5 c 1
 54.3232 386.143 103.752 409.614 149.4 445.8 c 9
 165.601 410.699 l 17
 178.261 458.533 215.533 514.921 265.5 499.8 c 24
 334.279 478.985 349.757 404.571 370.8 348.6 c 1
 394.565 411.63 432.484 485.918 497.7 467.399 c 24
 573.807 445.789 589.578 359.561 589.5 286.5 c 8
 589.5 286.5 553.486 141.098 543.601 46.1992 c 24
 542.521 35.8311 552.308 25.1152 562.5 27.2998 c 24
 587.931 32.749 604.55 40.9121 619.2 62.3994 c 24
 625.616 71.8105 603 86.6992 603 86.6992 c 25
 603 86.6992 621.2 109.367 632.7 102.899 c 24
 647.211 94.7373 654.829 76.6377 646.2 62.3994 c 24
 609.079 1.15039 592.345 -51.7725 524.7 -75.3008 c 24
 488.772 -87.7969 462.172 -40.3721 459.9 -2.40039 c 24
 454.14 93.873 505.8 240.6 505.8 240.6 c 16
 524.95 277.528 499.885 353.529 476.101 327 c 24
 406.581 249.46 368.985 206.018 365.4 84 c 9
 373.5 -48.3008 l 17
 328.658 0.890625 277.733 19.8047 211.5 -37.5 c 1
 242.61 34.6855 277.522 104.429 276.3 197.399 c 0
 279.728 252.003 272.926 383.072 233.101 340.5 c 24
 145.028 246.354 118.411 175.221 119.7 30 c 9
 144 -132 l 17
 83.0693 -80.6973 21.877 -29.8379 -53.0996 -2.40039 c 9
EndSplineSet
EndChar
StartChar: n
Encoding: 110 110 13
Width: 466
Flags: W
TeX: 0 0 0 0
VStem: 318 120<263.858 425.877> 462 36<116 155>
Back
Fore
-39 2 m 1
 66 290 60 404 0 506 c 1
 93 506 135 521 165 563 c 1
 165 473 147 503 138 440 c 1
 204 440 245.405 536.575 324 524 c 24
 391.167 513.253 438 459.754 438 392 c 24
 438 281.704 372.025 229.075 360 119 c 24
 356.077 83.0947 364.94 22.9785 399 35 c 24
 448.844 52.5918 462 83 462 155 c 1
 478.021 168.107 495 143 498 116 c 1
 455.854 53.3496 474 -28 363 -28 c 0
 295.259 -28 213.276 32.6455 240 95 c 0
 285 200 318 219.717 318 308 c 24
 318 357.605 303 452 261 422 c 0
 171.988 358.42 133.969 291.948 111 185 c 24
 93.2432 102.321 120 44 165 -25 c 1
 99 -25 78 47 -39 2 c 1
EndSplineSet
EndChar
StartChar: o
Encoding: 111 111 14
Width: 435
Flags: W
TeX: 0 0 0 0
Back
Fore
245.349 339 m 1
 296 392 281.349 435 281.349 435 c 17
 199.401 415.02 114.149 333.267 83.3486 225 c 24
 65.2246 161.291 116.54 79.4785 182.349 87 c 0
 287.349 99 332.349 165 347.349 243 c 0
 360.957 313.766 344.086 310.71 342 354 c 25
 342 354 292 286 245.349 339 c 1
2.34863 216 m 24
 27.1396 364.747 112.396 474.842 260.349 504 c 24
 358.843 523.411 429.853 396.022 413.349 297 c 24
 388.986 150.827 321.74 28.6543 176.349 0 c 24
 70.2178 -20.916 -15.4346 109.299 2.34863 216 c 24
EndSplineSet
EndChar
StartChar: p
Encoding: 112 112 15
Width: 474
Flags: W
TeX: 0 0 0 0
VStem: 333 108<239.244 405>
Back
Fore
114 60 m 1
 267 60 333 175.488 333 303 c 0
 333 396 304.688 459.441 252 432 c 0
 108 357 138 207 114 60 c 1
39 6 m 0
 60.3818 190.415 108 477 108 477 c 0
 60 525 69 510 0 570 c 1
 135 570 105 579 195 684 c 1
 195 585 198 624 180 486 c 1
 234 516 243 522 297 522 c 1
 395.49 506.597 441 492 441 318 c 1
 403.227 139.924 279 33 117 -6 c 1
 78 -150 60 -153 102 -315 c 1
 24 -240 -69 -198 -69 -198 c 17
 -69 -198 15 -201 39 6 c 0
EndSplineSet
EndChar
StartChar: q
Encoding: 113 113 16
Width: 532
Flags: W
TeX: 0 0 0 0
VStem: 674.894 27.1062<21 21 27 27>
Back
Fore
120 171 m 0
 120 87 168 111 210 108 c 1
 234.696 233.307 300.004 237.988 345 303 c 1
 315.642 260.203 266.414 206.404 297 156 c 1
 363.674 190.908 387 245.126 387 342 c 0
 387 354 417.166 420.728 324 423 c 0
 201 426 120 315.948 120 171 c 0
0 192 m 24
 58.1162 350.589 155.855 438.708 318 486 c 0
 390 507 386.711 456.382 429 468 c 24
 499.248 487.299 527.82 524.73 591 561 c 25
 474 393 l 25
 477.51 350.88 487.965 326.974 483 285 c 24
 474.934 216.804 457.38 180.69 441 114 c 17
 499.712 103.912 521.197 153 576 153 c 0
 633 153 696 105 702 21 c 0
 707.443 -55.2061 666 -126 576 -129 c 0
 538.709 -130.243 516.378 -94.1582 513 -57 c 24
 510.22 -26.415 523.251 3 564 3 c 0
 597 3 596.94 -24.4502 618 -42 c 25
 600.45 -34.9805 591.418 -19.75 573 -24 c 24
 554.441 -28.2832 540 -36.3096 540 -60 c 0
 540 -93 552.318 -104.482 573 -102 c 1
 648.037 -91.002 678.558 -37.0381 675 27 c 0
 672 81 630 102 573 96 c 1
 402 -24 423 -114 288 -303 c 1
 316.239 -210.466 312 -108 351 3 c 1
 308.502 -9.99512 272.514 0.449219 246 45 c 9
 205.05 28.6201 210 -12 141 3 c 0
 51.1367 22.5352 -31.6426 105.653 0 192 c 24
EndSplineSet
EndChar
StartChar: r
Encoding: 114 114 17
Width: 450
Flags: W
TeX: 0 0 0 0
Back
Fore
123.3 245.7 m 1
 217.053 268.52 288.439 262.967 306.899 383.4 c 9
 323.229 405.476 291.067 459.275 269.1 442.8 c 17
 105.999 420.465 148.038 335.562 123.3 245.7 c 1
-81.9004 0 m 17
 -23.3984 96.7275 41.9971 151.472 61.1992 315.9 c 1
 65.3506 392.104 26.1748 424.893 -3.60059 467.1 c 1
 54.7588 458.58 112.51 454.438 163.8 496.8 c 9
 163.8 459 l 25
 213.291 474.795 240.748 513.772 290.699 499.5 c 24
 358.241 480.203 433.354 453.468 428.399 383.4 c 24
 422.412 298.716 332.874 291.168 271.8 232.2 c 25
 344.699 162 l 17
 370.643 98.9863 392.615 68.3574 452.699 56.7002 c 1
 487.855 64.667 523.056 70.9932 528.3 108 c 9
 533.69 138.805 500.635 153.085 471.6 164.7 c 24
 459.156 169.678 447.3 153.803 447.3 140.4 c 24
 447.3 126.998 462.122 125.577 471.6 116.1 c 25
 460.017 110.835 453.897 98.3652 441.899 102.6 c 24
 429.458 106.991 432.018 120.717 425.699 132.3 c 17
 441.118 154.653 458.696 182.077 479.699 180.9 c 1
 516.687 170.903 536.77 146.465 547.199 110.7 c 1
 529.584 70.4219 501.894 32.9922 420.3 10.7998 c 1
 212.399 35.0996 247.889 183.878 107.1 197.1 c 1
 75.1758 113.052 79.9873 40.9912 180 0 c 9
 -81.9004 0 l 17
EndSplineSet
EndChar
StartChar: s
Encoding: 115 115 18
Width: 422
Flags: W
TeX: 0 0 0 0
Back
Fore
1.43359 135 m 24
 -10.2725 185.957 52.0234 212.48 103.434 222 c 24
 135.17 227.877 157.434 196.714 163.434 165 c 24
 168.263 139.475 148.97 119.534 124.434 111 c 24
 108.806 105.564 99.666 125.303 94.4336 141 c 24
 90.2148 153.655 99.9238 161.13 103.434 174 c 25
 105.774 162.3 103.295 154.231 109.434 144 c 24
 114.613 135.369 122.189 123.228 130.434 129 c 24
 142.29 137.299 144.38 151.399 139.434 165 c 24
 133.49 181.346 123.074 200.064 106.434 195 c 24
 83.1426 187.911 61.2158 166.533 70.4336 144 c 24
 88.3145 100.294 113.769 55.7705 160.434 63 c 24
 225.068 73.0137 275.322 112.1 283.434 177 c 24
 290.209 231.206 227.658 242.037 187.434 279 c 24
 140.881 321.778 46.3096 319.612 61.4336 381 c 24
 80.6338 458.932 136.434 474 238.434 486 c 1
 328.434 495 359.274 500.888 397.434 525 c 1
 383.881 457.056 377.132 389.043 373.434 321 c 1
 332.975 369.188 303.011 412.908 220.434 426 c 9
 187.719 434.288 144.566 411.525 148.434 378 c 24
 152.295 344.535 203.658 369.689 229.434 348 c 24
 301.643 287.238 414.316 263.254 394.434 171 c 24
 370.221 58.6514 268.883 10.4844 154.434 0 c 24
 75.1885 -7.25879 19.251 57.4434 1.43359 135 c 24
EndSplineSet
EndChar
StartChar: t
Encoding: 116 116 19
Width: 350
Flags: W
TeX: 0 0 0 0
Back
Fore
0 321 m 17
 68.2432 354.782 130.685 396.486 90 579 c 1
 143.16 565.685 198.179 558.837 267 600 c 1
 221.74 535.056 180.145 466.528 159 378 c 1
 223.419 385.902 275.338 417.824 324 456 c 9
 279 180 l 17
 238.57 231.064 206.736 299.174 144 306 c 9
 134.64 247.5 110.045 214.402 120 156 c 24
 128.732 104.77 137.199 46.1777 189 42 c 24
 248.58 37.1953 260.37 102.39 306 141 c 25
 246.33 77.8203 239.173 -9.75977 153 -21 c 24
 84.9043 -29.8818 45.7959 38.1699 30 105 c 17
 21.4297 150.241 66.3418 199.672 75 309 c 9
 0 321 l 17
EndSplineSet
EndChar
StartChar: u
Encoding: 117 117 20
Width: 423
Flags: W
TeX: 0 0 0 0
VStem: 66 21<168 324>
Back
Fore
3 129 m 17
 6 162 63 306 66 324 c 9
 65.5117 373.36 25.7402 389.88 0 432 c 17
 70.4688 428.756 117.217 443.807 156 465 c 9
 129.09 349.17 86.0566 286.911 87 168 c 24
 87.335 125.735 124.049 63.2334 159 87 c 17
 281.971 103.587 272.814 214.946 312 321 c 9
 327.972 357.508 308.34 383.22 306 423 c 17
 365.456 396.297 419.517 397.081 471 411 c 1
 397.672 330.138 340.965 277.883 342 162 c 1
 340.352 52.7363 409.433 -7.52734 444 72 c 9
 411.24 36.9004 407.513 -11.0889 360 -18 c 24
 319.676 -23.8652 310.59 22.2598 279 48 c 25
 226.35 29.2803 197.618 -15.7354 144 0 c 24
 72.4844 20.9883 20.4443 56.5381 3 129 c 17
EndSplineSet
EndChar
StartChar: v
Encoding: 118 118 21
Width: 451
Flags: W
TeX: 0 0 0 0
Back
Fore
-65 463 m 1
 4.1875 450.524 71.7373 446.513 133 475 c 1
 81.7529 235.141 150.405 182.188 208 112 c 1
 292.586 151.178 348.234 268.579 316 460 c 1
 376 444.002 436 449.556 496 469 c 1
 375.715 334.023 379.641 84.6943 196 1 c 1
 70 121 49 196 46 352 c 1
 32.2539 398.327 -11.6602 432.554 -65 463 c 1
EndSplineSet
EndChar
StartChar: w
Encoding: 119 119 22
Width: 533
Flags: W
TeX: 0 0 0 0
Back
Fore
-83 447 m 1
 37 399 70 462 121 468 c 1
 121 315 88 297 127 174 c 1
 223 258 184 291 241 402 c 1
 289 387 292 399 334 399 c 1
 319 261 313 246 337 123 c 1
 466 294 454 363 469 468 c 1
 559 405 619 477 700 495 c 1
 493 321 466 216 316 -15 c 1
 253 66 283 105 256 234 c 1
 172 153 184 60 82 0 c 1
 28 204 10 306 -83 447 c 1
EndSplineSet
EndChar
StartChar: x
Encoding: 120 120 23
Width: 546
Flags: W
TeX: 0 0 0 0
Back
Fore
-30 326 m 21
 67.5449 380.14 103.304 476.246 144 569 c 5
 145.483 526 130.91 483 162 440 c 5
 227.812 417.037 262.463 379.046 297 341 c 5
 446.612 398.691 385.882 485.599 372 566 c 5
 424.22 497.967 427.224 422.975 561 443 c 5
 539.247 422.001 524.344 395.782 480 392 c 5
 447.949 338.006 403.948 296.006 348 266 c 5
 400 103.091 497.904 184.315 588 224 c 5
 504.641 156.583 468.034 60.2471 462 -55 c 5
 434.596 58.5664 378 83 312 116 c 13
 270 212 l 21
 152.809 160.847 145.392 45.918 150 -76 c 5
 121.294 3.22559 63.8174 72.75 -36 128 c 5
 11.7744 130.142 68.1289 126.894 108 134 c 13
 210 302 l 21
 207.152 348.664 174.568 361.082 132 362 c 13
 -30 326 l 21
EndSplineSet
EndChar
StartChar: y
Encoding: 121 121 24
Width: 425
Flags: W
TeX: 0 0 0 0
VStem: -27 54<-85 -82>
Back
Fore
0 430 m 1
 114 394 114 439 171 454 c 1
 135 325 109.847 355.075 117 287 c 24
 122.583 233.861 126 134 200 178 c 4
 266.956 217.812 277.423 265.286 294 329 c 9
 294 329 324 404 279 485 c 1
 372 458 390 497 462 557 c 1
 369 374 369 341 339 170 c 0
 309.615 2.50488 297 -196 102 -196 c 0
 35.7539 -196 -26.4648 -151.369 -27 -85 c 24
 -27.5879 -12.1465 31.0743 28.3953 100 52 c 24
 140.934 66.0186 190.519 33.2422 192 -10 c 24
 193.614 -57.1367 149.642 -78.7813 105 -94 c 24
 83.0186 -101.494 58.2188 -78.1553 60 -55 c 24
 61.9199 -30.0342 66 -28 111 -16 c 1
 81 -43 93.321 -38.9258 96 -55 c 24
 97.8145 -65.8877 109.913 -74.483 120 -70 c 24
 137.535 -62.2061 152.044 -50.08 150 -31 c 24
 147.526 -7.9082 132.453 22.8952 111 14 c 24
 65.0449 -5.05469 27.9044 -32.2588 27 -82 c 24
 26.2461 -123.491 67.6699 -160.777 108 -151 c 0
 207 -127 186 -151 267 53 c 1
 276 122 259.45 100.609 249 134 c 1
 210 122 184.335 72.1453 140 86 c 24
 89.2969 101.845 57 146.895 57 194 c 0
 57 314 111 331 0 430 c 1
EndSplineSet
EndChar
StartChar: z
Encoding: 122 122 25
Width: 506
Flags: W
TeX: 0 0 0 0
HStem: 380 72<111 321>
Back
Fore
-87 -34 m 1
 24.3623 31.4141 118.634 116.242 198 218 c 9
 78 236 l 25
 249 281 l 17
 282.327 293.357 301.777 336.428 321 380 c 9
 81 377 l 25
 0 326 l 17
 4.32031 385.848 24.959 437.564 0 512 c 1
 32.3906 487.118 63.2637 460.629 111 452 c 1
 240.418 445.631 363.55 450.591 477 473 c 1
 433.154 397.329 388.529 314.592 348 269 c 1
 368.786 229.609 415.583 250.311 468 284 c 1
 442.037 225.849 366.839 193.737 285 209 c 9
 204 119 l 17
 252.574 88.3271 300.68 55.4014 357 62 c 1
 422.845 52.3301 456.739 94.4746 483 149 c 9
 465 -85 l 17
 457.529 -58.3838 459.448 -36.6338 423 5 c 1
 392 -7.99512 361 -18.6191 330 -19 c 1
 263.088 -6.56836 201.775 13.8965 120 5 c 1
 29.8232 14.6123 -18.7949 -20.1514 -87 -34 c 1
EndSplineSet
EndChar
StartChar: A
Encoding: 65 65 27
Width: 641
Flags: W
TeX: 0 0 0 0
Fore
168 172 m 1
 139.558 165.687 162 94 180 76 c 1
 274 82 360 188 424 306 c 1
 358 350 258 218 168 172 c 1
164 256 m 1
 260 284 310 376 398 390 c 1
 363.721 468.383 342.564 521.801 286 548 c 1
 220.036 467.612 180 372 164 256 c 1
347 88 m 0
 277.4 -4.7998 240 2 186 -24 c 1
 94.1055 18.7305 -7.21875 12.7139 -111 -6 c 1
 -30.9902 39.6689 34.8809 91.0098 55.5 160.5 c 1
 60 394.5 91.5 507 280.5 687 c 1
 555.962 561.458 550.072 187.466 730.5 -15 c 1
 640.5 14.166 550.5 22.4971 460.5 -1.5 c 1
 480.03 114.477 474 206 444 306 c 1
 400 260 419 184 347 88 c 0
EndSplineSet
EndChar
StartChar: B
Encoding: 66 66 28
Width: 471
Flags: W
TeX: 0 0 0 0
VStem: 42 111<0 122.5> 51 102<174 523.5>
Fore
165 477 m 25,0,-1
153 84 m 1,1,-1
 306 105 321.55 170.833 354 279 c 0,4,-1
 372 339 357 420 282 393 c 0,7,-1
 198.098 362.795 159 345 156 174 c 0,10,-1
 154.87 109.617 153 161 153 84 c 1,1,-1
312 573 m 0,13,-1
 342 636 315.794 762 258 744 c 0,16,-1
 144.095 708.524 153 612 153 435 c 1,19,-1
 276 480 279.63 505.023 312 573 c 0,13,-1
399 585 m 0,22,-1
 366 495 351 477 282 444 c 1,25,-1
 369 468 444 401 429 318 c 0,28,-1
 386.133 80.8057 342 0 42 0 c 1,31,-1
 42 188 46.9417 198.074 51 309 c 0,34,-1
 69 801 21 699 -12 798 c 1,37,-1
 288 798 208.412 822 292.412 804 c 0,40,-1
 419.412 776.785 399 585 399 585 c 0,22,-1
EndSplineSet
EndChar
StartChar: D
Encoding: 68 68 29
Width: 595
Flags: W
TeX: 0 0 0 0
Fore
405 -3 m 0
 320.58 -35.4688 99 24 -114 -3 c 1
 -67.1475 14.8359 -27.8105 35.3574 0 60 c 1
 93 423 l 1
 222 882 27 705 9 771 c 1
 144 804 186 750 213 750 c 1
 310 705 l 0
 417.007 660.23 552.14 549.763 552.14 382.388 c 0
 552.14 328.188 483 27 405 -3 c 0
372 51 m 1
 474 186 504.522 298.832 465 456 c 24
 441.52 549.375 275.904 654.485 243 564 c 4
 231 531 234 621 159 234 c 1
 138 72 213 21 372 51 c 1
EndSplineSet
EndChar
StartChar: E
Encoding: 69 69 30
Width: 497
Flags: W
TeX: 0 0 0 0
HStem: 318 72<122 310.352>
VStem: -0.148438 342<255 534.074>
Fore
-0.148438 372 m 1
 -0.148438 696.148 270.182 794 452 794 c 1
 481.148 702 429.63 617.74 440.852 543 c 1
 401.852 619.5 376.746 690.338 308.852 669 c 24
 200.946 635.087 150.254 577.496 125.852 444 c 1
 206.852 426 204.513 390 257.852 390 c 0
 362.852 390 287.852 507 359.852 538.5 c 1
 341.852 367.5 341.852 390 341.852 255 c 1
 275.852 255 206 318 122 318 c 1
 85.7471 257.793 167.88 115.5 257.852 115.5 c 0
 401.852 115.5 403 197.5 448 292 c 1
 487 157 434.852 144 458.852 0 c 1
 422.852 76.5 394 50 354 34 c 0
 289.091 8.03639 276 -12 178 0 c 0
 42.1667 16.6327 -0.148438 169.802 -0.148438 372 c 1
EndSplineSet
EndChar
StartChar: F
Encoding: 70 70 31
Width: 356
Flags: W
TeX: 0 0 0 0
Fore
-6 417 m 1
 33 465 18 462 69 468 c 1
 86.4131 571.452 44 678 65 804 c 1
 191 786 261.534 807.073 305 813 c 0
 374.394 822.463 446 735 458 660 c 1
 454.612 606.592 384 567 318 561 c 1
 273 558 252.839 583.127 264 609 c 24
 281.285 649.069 296 654 362 663 c 1
 380 693 341 741 308 729 c 1
 184.11 694.756 191.062 646.234 162 468 c 1
 384 453 295.98 558.455 330 501 c 1
 289.799 367.146 312 345 297 240 c 1
 267 315 282 408 150 384 c 1
 111 -3 222 -3 249 0 c 1
 132 -66 117 30 -48 -18 c 1
 126 75 41.8619 215.213 57 372 c 24
 59.9014 402.055 27 390 -6 417 c 1
EndSplineSet
EndChar
StartChar: G
Encoding: 71 71 32
Width: 549
Flags: W
TeX: 0 0 0 0
VStem: 0 89.1904<192 303> 363 72<588.89 714.801>
Fore
282 807 m 0
 144 753 45.1904 782.5 21.1904 544 c 0
 13.1182 463.779 15.8464 482.424 13.1904 443 c 24
 9.60645 389.794 7.98895 359.753 5.19043 306.5 c 24
 2.84473 261.86 0.0511257 236.701 0 192 c 24
 -0.0234375 171.627 -5 192 5 140 c 0
 18.8057 68.2109 65.6484 -16.4951 125 -4 c 0
 192.72 10.2568 302.007 46.4229 361 80 c 1
 398.992 101.624 385 -10 507 0 c 1
 369 230 493.19 162.059 493.19 239 c 0
 493.19 318.89 542.189 428.5 385.19 365 c 0
 324.453 340.435 260.189 394.5 208.189 398.5 c 1
 276.189 292.5 72.1895 36.5 314.189 270.5 c 0
 390.106 343.907 376.656 213.051 364.19 185 c 0
 304.19 50 244.777 95.3162 155 86 c 24
 120.773 82.4482 111.316 118.979 104 158 c 0
 86 254 86.6353 246.213 89.1904 303 c 24
 94.1611 413.471 107.457 521.566 123.19 584.5 c 0
 159.19 728.5 173.588 720.767 249 753 c 24
 296.239 773.191 363 742.602 363 687 c 0
 363 575.399 267.59 561 243.59 594.6 c 1
 224.967 661.566 260.948 642.454 279 675 c 1
 232.6 654.199 253.19 676.199 224.39 655.399 c 0
 179.42 622.922 197.702 581.794 237.19 556.199 c 1
 323.59 526.713 435 517.779 435 660 c 1
 432 756 438 642 429 741 c 1
 444 786 362.438 838.476 282 807 c 0
EndSplineSet
EndChar
StartChar: H
Encoding: 72 72 33
Width: 503
Flags: W
TeX: 0 0 0 0
VStem: 55.4268 109.223<300.793 389.844>
Fore
192 -204 m 1
 501.96 -74.1113 451.776 173.856 457.681 327.36 c 0
 460.871 410.294 401.593 495.624 333.696 495.624 c 1
 265.765 505.358 213.75 436.599 164.65 362.784 c 1
 164.65 416.903 161.128 473.596 170.555 528.097 c 0
 192 652.08 200.074 749.496 356.531 776.063 c 0
 391.844 782.06 428.802 746.184 421.475 711.12 c 0
 407.699 645.192 387.034 622.068 366.863 622.068 c 0
 353.839 622.068 338.819 636.336 338.819 652.08 c 0
 338.819 669.645 338.819 671.269 362.435 690.456 c 1
 335.932 690.456 304.458 678.518 306.347 652.08 c 24
 308.464 622.444 327.011 601.896 368.34 607.8 c 0
 472.576 622.691 487.403 781.758 362.435 808.536 c 0
 279.779 826.249 288.635 722.929 -6.56543 722.929 c 1
 25.9072 625.513 56.208 708.169 55.4268 300.793 c 0
 55.2178 191.568 76.7764 141.071 -56.0635 -21.2891 c 1
 94.4883 49.5596 132.865 -47.8564 186 -39 c 1
 59.0645 182.4 200.171 312.398 282.73 342.12 c 0
 356.531 368.688 342.553 79.3926 345.504 26.2559 c 1
 337.43 -118.392 307.128 -103.631 192 -204 c 1
EndSplineSet
EndChar
StartChar: I
Encoding: 73 73 34
Width: 264
Flags: W
TeX: 0 0 0 0
Fore
-9 -84 m 29
 39 -9 l 29
 -69 51 l 29
 63 69 l 29
 117 150 l 29
 150 69 l 29
 264 63 l 21
 228.85 37.1289 196.452 19.2305 177 0 c 13
 198 -102 l 29
 108 -36 l 29
 -9 -84 l 29
0 576 m 25
 48 651 l 25
 -48 711 l 25
 72 729 l 25
 126 810 l 25
 159 729 l 25
 285 723 l 17
 249.85 697.129 205.452 679.23 186 660 c 9
 207 558 l 25
 117 624 l 25
 0 576 l 25
57 657 m 1
 131.394 628.324 137.623 649.247 168 651 c 1
 189 51 135.706 -37.8975 36 -54 c 5
 100.51 -2.73047 95.8086 394.05 57 657 c 1
EndSplineSet
EndChar
StartChar: J
Encoding: 74 74 35
Width: 367
Flags: W
TeX: 0 0 0 0
Fore
6 714 m 5
 63.124 728.146 219.98 731.364 231 849 c 5
 244.335 761.835 342.772 724.536 417 726 c 5
 357.277 689.83 255.203 687.78 240 567 c 5
 237.82 636.829 100.047 692.032 6 714 c 5
141 705 m 5
 285.007 632.031 274.117 702.016 318 723 c 5
 270.867 625.082 285 308 282 183 c 1
 265.54 47.5869 304.386 -193.878 156 -180 c 1
 66.5225 -177.256 10.8604 -109.891 4.70996 4.5 c 1
 8.81738 103.976 21.9297 145.949 82.2002 174.239 c 1
 184.29 198.84 183.061 100.439 189.21 56.1592 c 1
 192.457 11.6621 181.029 -23.2617 137.55 -28.71 c 1
 110.949 -23.3701 90.7861 -16.918 93.2705 26.6396 c 1
 101.822 60.3467 112.45 49.584 124.021 56.1592 c 1
 112.95 41.3994 117.404 35.4609 112.95 26.6396 c 1
 115.764 -8.74805 132.169 -2.4502 140.01 -7.80078 c 1
 166.157 -0.803711 169.938 25.5068 165.84 58.6201 c 1
 156 116.43 146.16 148.409 88.3506 136.109 c 1
 39.1504 109.05 34.7588 63.0342 48.9902 3.26953 c 1
 98.1904 -98.8203 90.499 -83.5947 162.15 -102.511 c 1
 262.022 -115.755 210.205 88.8262 219 192 c 1
 232.884 299.408 218.383 613.448 141 705 c 5
EndSplineSet
EndChar
StartChar: K
Encoding: 75 75 36
Width: 471
Flags: W
TeX: 0 0 0 0
Fore
-60 -36 m 1
 48 48 126 663 -18 804 c 1
 144 735 138 1047 456 879 c 1
 259.977 950.307 191.29 810.774 162 606 c 9
 156 369 l 17
 272.94 397.94 303.698 472.324 363 567 c 24
 380.223 594.496 359.4 640.295 327 642 c 24
 286.441 644.135 249 600 249 573 c 0
 252 549 268.31 545.583 276 546 c 0
 326.099 555.619 285.312 581.758 291 597 c 1
 311.242 588.093 328.572 571.686 321 552 c 24
 311.413 527.074 287.215 513.903 261 519 c 24
 233.341 524.378 210.162 538.249 213 573 c 0
 209.544 640.058 284.899 709.449 351 687 c 24
 456.543 651.155 387 513 531 465 c 1
 440.423 433.667 291.781 390.982 255 309 c 1
 333 312 372 111 543 60 c 0
 576.335 50.0579 606.111 85.334 609 120 c 24
 612.234 158.811 590.589 188.183 555 204 c 24
 531.87 214.279 509.315 191.906 501 168 c 24
 495.286 151.572 514.376 140.115 531 135 c 24
 549.204 129.398 558 123 579 144 c 1
 570 117 557.435 96.7923 534 102 c 24
 499.264 109.72 470.001 125.944 471 168 c 0
 478.65 211.363 509.936 238.123 546 228 c 24
 600.258 212.77 649.97 175.788 642 120 c 0
 630 36 537 -9 462 -9 c 0
 276 45 279 204 162 228 c 1
 150.594 131.34 183.785 -123.084 264 -180 c 1
 158 -157.312 46 -7.48828 -60 -36 c 1
EndSplineSet
EndChar
StartChar: N
Encoding: 78 78 37
Width: 552
Flags: W
TeX: 0 0 0 0
VStem: 358 119<464 609.907> 501 36<171 229.5>
Fore
300 128 m 1
 332 20 334.259 -45 402 -45 c 0
 513 -45 494.854 77.0244 537 171 c 1
 534 211.5 517.021 249.161 501 229.5 c 1
 501 121.5 503.732 84.2998 438 49.5 c 24
 392.538 25.4316 395.264 124.195 399 175.5 c 24
 410.809 337.646 477 422.424 477 585 c 16
 477 634.815 520 688 500 798 c 1
 424 748 370.244 791.781 336 800 c 1
 349 733 343.896 750.148 346 718 c 24
 352.479 619.041 360.318 518.142 358 464 c 0
 354.975 393.339 362 398 342.12 296.077 c 1
 236.232 408.984 227.091 657 177 657 c 1
 186 751.5 204 706.5 204 841.5 c 1
 174 778.5 132 756 39 756 c 1
 99 603 105 432 0 0 c 1
 117 67.5 138 -40.5 204 -40.5 c 1
 159 63 154.844 149.952 150 274.5 c 24
 144.625 412.692 178 470 178 628 c 1
 300 128 l 1
EndSplineSet
EndChar
StartChar: P
Encoding: 80 80 38
Width: 348
Flags: W
TeX: 0 0 0 0
VStem: 348 108<518.244 684>
Fore
129 339 m 1
 282 339 348 454.488 348 582 c 0
 348 675 319.688 738.441 267 711 c 0
 123 636 153 486 129 339 c 1
54 285 m 0
 75.3818 469.415 120 735 120 735 c 1
 109.97 778.802 109.244 809.215 6 873 c 1
 129 810 126 903 216 1008 c 1
 216 909 213 903 195 765 c 1
 249 795 258 801 312 801 c 1
 410.49 785.597 456 771 456 597 c 1
 418.227 418.924 294 312 132 273 c 1
 93 129 105 -9 147 -171 c 1
 63 0 0 -45 -48 36 c 1
 -48 36 30 78 54 285 c 0
EndSplineSet
EndChar
StartChar: L
Encoding: 76 76 39
Width: 346
Flags: W
TeX: 0 0 0 0
Fore
-39 -141 m 5
 10.8975 9.7959 122.586 320.349 138 531 c 1
 149.643 606.796 36.3926 635.953 -12 690 c 1
 106.821 682.66 203.059 725.577 282 807 c 9
 99 -42 l 21
 159 -222 321 -111 339 57 c 13
 384 -159 l 21
 347.851 -148.429 315 -177 264 -186 c 5
 132 -168 75.5332 -113.342 -39 -141 c 5
EndSplineSet
EndChar
StartChar: M
Encoding: 77 77 40
Width: 871
Flags: W
TeX: 0 0 0 0
VStem: 63 107.01<36 58.6934> 384.031 121.769<149.467 340.093>
Fore
-66.1504 4.22852 m 9
 63 36 l 17
 76.1074 304.339 73.9014 555.862 -10.7998 716.805 c 1
 80.6611 657.369 148.214 696.825 210.6 757.653 c 9
 232.741 698.65 l 17
 250.042 779.058 304.872 821.928 365.85 799.229 c 24
 458.111 764.886 484.42 688.348 513.18 594.26 c 1
 545.661 700.213 589.225 827.976 686.611 793.963 c 24
 807.729 751.661 812.177 612.686 812.071 489.87 c 8
 811.932 330.443 762.794 244.783 749.34 85.9248 c 24
 747.993 70.0137 759.729 50.085 775.17 54.1553 c 24
 811.901 63.8369 834.245 79.9365 852.661 113.158 c 24
 861.446 129.007 839.155 138.076 830.52 154.007 c 25
 846.35 164.627 855.434 192.085 871.111 181.238 c 24
 893.733 165.587 901.719 137.835 889.561 113.158 c 24
 840.454 13.499 825.656 -74.6152 723.51 -118.316 c 24
 669.297 -141.511 637.815 -54.668 634.951 4.22852 c 24
 627.12 165.215 635.068 264.195 697.68 412.713 c 16
 723.85 474.789 691.733 605.479 657.09 557.951 c 24
 557.023 420.666 510.7 354.578 505.8 149.467 c 9
 516.871 -72.9287 l 17
 455.586 9.76172 385.991 41.5566 295.47 -54.7744 c 1
 337.988 66.5703 385.701 183.81 384.031 340.093 c 0
 388.714 431.881 383.468 657.531 324.991 580.644 c 24
 196.445 411.628 168.248 302.809 170.01 58.6934 c 9
 194.85 -187.771 l 17
 111.579 -101.528 36.3193 -41.8926 -66.1504 4.22852 c 9
EndSplineSet
EndChar
StartChar: O
Encoding: 79 79 41
Width: 639
Flags: W
TeX: 0 0 0 0
Fore
121.301 340.402 m 24
 93.8799 244.018 171.516 120.243 271.077 131.622 c 0
 429.932 149.776 498.012 249.629 520.706 367.635 c 0
 541.294 474.696 493.02 453.463 475.318 508.335 c 25
 427.526 467.622 420.854 426.639 352.773 403.944 c 0
 303.356 387.473 272.483 417.788 221.151 426.639 c 17
 302.848 485.642 265.596 514.44 316.465 544.644 c 24
 336.309 556.426 350.766 495.889 366.39 512.873 c 24
 407.348 557.394 399.613 601.468 420.854 658.111 c 17
 296.876 627.883 167.897 504.2 121.301 340.402 c 24
-1.24414 326.786 m 24
 36.2607 551.826 165.245 718.389 389.084 762.502 c 24
 538.095 791.869 645.525 599.143 620.557 449.331 c 24
 583.7 228.188 481.963 43.3516 262 0 c 24
 101.435 -31.6436 -28.1494 165.358 -1.24414 326.786 c 24
EndSplineSet
EndChar
StartChar: Q
Encoding: 81 81 42
Width: 590
Flags: W
TeX: 0 0 0 0
VStem: 674.894 27.1062<25.5 25.5 31.5 31.5>
Fore
120 259.5 m 0
 120 133.5 168 169.5 210 165 c 1
 234.696 352.961 300.004 359.982 345 457.5 c 1
 315.642 393.305 266.414 312.606 297 237 c 1
 363.674 289.362 462 288.189 462 433.5 c 0
 462 451.5 417.166 634.092 324 637.5 c 0
 201 642 120 476.922 120 259.5 c 0
0 291 m 24
 50.3232 496.983 155.855 661.062 318 732 c 0
 390 763.5 387.809 688.025 429 705 c 24
 506.088 736.767 527.82 790.095 591 844.5 c 25
 483 607.5 l 25
 507.57 532.62 553.6 493.94 546 415.5 c 24
 536.096 313.276 481.95 268.185 441 174 c 17
 499.712 158.868 521.197 157.5 576 157.5 c 0
 633 157.5 696 109.5 702 25.5 c 0
 707.443 -50.7061 666 -121.5 576 -124.5 c 0
 538.709 -125.743 516.378 -89.6582 513 -52.5 c 24
 510.22 -21.915 523.251 7.5 564 7.5 c 0
 597 7.5 596.94 -19.9502 618 -37.5 c 25
 600.45 -30.4805 591.418 -15.25 573 -19.5 c 24
 554.441 -23.7832 540 -31.8096 540 -55.5 c 0
 540 -88.5 552.318 -99.9824 573 -97.5 c 1
 648.037 -86.502 678.558 -32.5381 675 31.5 c 0
 672 85.5 630 106.5 573 100.5 c 1
 402 -19.5 423 -109.5 288 -298.5 c 1
 316.239 -205.966 312 -159 351 7.5 c 1
 308.502 -11.9922 272.514 3.67383 246 70.5 c 9
 205.05 45.9297 210 -15 141 7.5 c 0
 51.1367 36.8037 -29.3066 171.043 0 291 c 24
EndSplineSet
EndChar
StartChar: R
Encoding: 82 82 43
Width: 513
Flags: W
TeX: 0 0 0 0
VStem: 60 114<490.5 729>
Fore
129 373.5 m 1
 233.17 411.532 312.488 402.279 333 603 c 9
 351.145 639.792 315.408 729.459 291 702 c 17
 109.777 664.776 156.487 523.271 129 373.5 c 1
-90 0 m 17
 -24.998 161.213 38.6641 216.453 60 490.5 c 1
 64.6123 617.508 21.084 672.154 -12 742.5 c 1
 52.8438 728.3 117.012 721.398 174 792 c 9
 174 729 l 25
 228.99 755.325 258.963 820.516 315 796.5 c 24
 403.427 758.603 472.53 699.099 468 603 c 24
 462.377 483.701 361.86 449.28 294 351 c 25
 375 234 l 17
 403.825 128.976 428.239 77.9277 495 58.5 c 1
 534.062 71.7783 573.174 82.3223 579 144 c 9
 554.43 180.855 553.982 215.711 516 238.5 c 24
 499.722 248.267 489 216.983 489 198 c 24
 489 179.017 505.47 173.295 516 157.5 c 25
 503.13 148.725 496.767 127.712 483 135 c 24
 464.846 144.611 472.02 165.195 465 184.5 c 17
 482.132 221.756 501.663 267.462 525 265.5 c 1
 566.097 248.84 588.411 208.108 600 148.5 c 1
 580.427 81.3711 549.66 18.9873 459 -18 c 1
 228 22.5 267.433 270.464 111 292.5 c 1
 75.5293 152.42 80.875 32.3184 192 -36 c 9
 -90 0 l 17
EndSplineSet
EndChar
StartChar: S
Encoding: 83 83 44
Width: 420
Flags: W
TeX: 0 0 0 0
VStem: 94.4336 9<211.5 261>
Fore
1.43359 202.5 m 24
 -10.2725 278.936 52.0234 318.72 103.434 333 c 24
 135.17 341.815 157.434 295.071 163.434 247.5 c 24
 168.263 209.213 148.97 179.301 124.434 166.5 c 24
 108.806 158.346 99.666 187.954 94.4336 211.5 c 24
 90.2148 230.482 99.9238 241.695 103.434 261 c 25
 105.773 243.45 103.295 231.347 109.434 216 c 24
 114.612 203.054 122.188 184.842 130.434 193.5 c 24
 142.29 205.948 144.38 227.099 139.434 247.5 c 24
 133.489 272.019 123.073 300.096 106.434 292.5 c 24
 83.1426 281.866 61.2158 249.8 70.4336 216 c 24
 88.3135 150.441 113.769 83.6553 160.434 94.5 c 24
 225.067 109.521 275.321 168.15 283.434 265.5 c 24
 290.209 346.809 227.657 363.056 187.434 418.5 c 24
 140.881 482.667 46.3096 479.418 61.4336 571.5 c 24
 80.6338 688.398 136.434 711 238.434 729 c 1
 328.434 742.5 359.273 751.332 397.434 787.5 c 1
 383.881 685.584 377.132 583.564 373.434 481.5 c 1
 332.975 553.78 303.011 619.362 220.434 639 c 9
 187.719 651.432 144.565 617.287 148.434 567 c 24
 152.295 516.803 203.657 554.533 229.434 522 c 24
 301.643 430.857 414.315 394.881 394.434 256.5 c 24
 370.221 87.9775 268.883 15.7256 154.434 0 c 24
 75.1885 -10.8887 19.251 86.165 1.43359 202.5 c 24
EndSplineSet
EndChar
StartChar: U
Encoding: 85 85 45
Width: 750
Flags: W
TeX: 0 0 0 0
Fore
0 240.052 m 17
 5.58203 301.462 94.7998 572.503 100.382 606 c 9
 19.3818 777 l 17
 150.515 770.963 184.213 761.561 256.382 801 c 9
 217.354 610.534 146.01 506.776 156.312 312.626 c 24
 160.48 234.085 238.042 220.681 290.296 161.896 c 17
 519.127 192.764 502.089 399.987 575.007 597.339 c 9
 563.842 787.146 l 17
 674.482 737.458 775.083 738.916 870.886 764.817 c 1
 734.43 614.343 628.908 517.104 630.834 301.462 c 1
 627.768 98.1367 756.318 -14.0068 820.642 133.983 c 9
 759.68 68.667 752.743 -20.6348 664.328 -33.4951 c 24
 589.29 -44.4102 572.383 41.4229 513.599 89.3213 c 25
 415.624 54.4863 362.157 -29.2822 262.382 0 c 24
 129.301 39.0566 102.329 146.432 0 240.052 c 17
EndSplineSet
EndChar
StartChar: V
Encoding: 86 86 46
Width: 690
Flags: W
TeX: 0 0 0 0
Fore
-91.5 685.5 m 1
 12.2812 666.786 113.605 660.77 205.5 703.5 c 1
 128.63 343.712 231.607 264.282 318 159 c 1
 444.879 217.768 528.352 393.869 480 681 c 1
 570 657.003 660 665.334 750 694.5 c 1
 569.572 492.034 575.462 118.042 300 -7.5 c 1
 111 172.5 79.5 285 75 519 c 1
 54.3809 588.49 -11.4902 639.831 -91.5 685.5 c 1
EndSplineSet
EndChar
StartChar: W
Encoding: 87 87 47
Width: 555
Flags: W
TeX: 0 0 0 0
Fore
-51.7607 735.3 m 1
 72.9805 656.1 107.283 760.05 160.298 769.95 c 1
 160.298 517.5 125.994 487.8 166.535 284.85 c 1
 266.326 423.45 225.786 477.9 285.038 661.05 c 1
 334.934 636.3 338.053 656.1 381.712 656.1 c 1
 366.119 428.4 359.882 403.65 384.83 200.7 c 1
 518.927 482.85 506.451 596.7 522.044 769.95 c 1
 615.599 666 677.969 784.8 762.168 814.5 c 1
 546.992 527.4 518.927 354.15 363 -27 c 1
 297.512 106.65 328.697 171 300.631 383.85 c 1
 213.312 250.2 225.786 96.75 119.758 -2.25 c 1
 63.624 334.35 44.9131 502.65 -51.7607 735.3 c 1
EndSplineSet
EndChar
StartChar: X
Encoding: 88 88 48
Width: 799
Flags: W
TeX: 0 0 0 0
Fore
-51 441 m 17
 95.3164 522.21 148.956 666.369 210 805.5 c 1
 212.226 741 190.365 676.5 237 612 c 1
 335.721 577.556 387.694 520.569 439.5 463.5 c 1
 663.918 550.036 572.823 680.399 552 801 c 1
 630.33 698.95 634.837 586.463 835.5 616.5 c 1
 802.87 585.002 780.516 545.673 714 540 c 1
 665.924 459.009 599.922 396.009 516 351 c 1
 594 106.636 740.855 228.473 876 288 c 1
 750.962 186.874 696.051 42.3711 687 -130.5 c 1
 645.895 39.8496 561 76.5 462 126 c 9
 399 270 l 17
 223.213 193.271 212.089 20.877 219 -162 c 1
 175.94 -43.1621 89.7256 61.124 -60 144 c 1
 11.6621 147.212 96.1943 142.342 156 153 c 9
 309 405 l 17
 304.729 474.995 255.853 493.623 192 495 c 9
 -51 441 l 17
EndSplineSet
EndChar
StartChar: Z
Encoding: 90 90 49
Width: 753
Flags: W
TeX: 0 0 0 0
HStem: 561 108<166.5 481.5>
Fore
-130.5 -60 m 1
 36.543 38.1201 177.95 165.362 297 318 c 9
 117 345 l 25
 373.5 412.5 l 17
 423.49 431.036 452.666 495.642 481.5 561 c 9
 121.5 556.5 l 25
 0 480 l 17
 6.48047 569.771 37.4395 647.346 0 759 c 1
 48.5859 721.678 94.8965 681.943 166.5 669 c 1
 360.627 659.446 545.324 666.887 715.5 700.5 c 1
 649.73 586.994 582.793 462.889 522 394.5 c 1
 553.179 335.413 623.374 366.467 702 417 c 1
 663.056 329.774 550.258 281.605 427.5 304.5 c 9
 306 169.5 l 17
 378.861 123.49 451.021 74.1016 535.5 84 c 1
 634.267 69.4941 685.108 132.711 724.5 214.5 c 9
 697.5 -136.5 l 17
 686.293 -96.5752 689.172 -63.9502 634.5 -1.5 c 1
 588 -20.9922 541.5 -36.9287 495 -37.5 c 1
 394.633 -18.8535 302.663 11.8447 180 -1.5 c 1
 44.7344 12.918 -28.1924 -39.2266 -130.5 -60 c 1
EndSplineSet
EndChar
StartChar: Y
Encoding: 89 89 50
Width: 515
Flags: W
TeX: 0 0 0 0
VStem: 0.0253906 54<-99 -96>
Fore
8 746 m 1
 178.999 692 110.499 710 195.999 732.5 c 1
 141.999 539 102.695 540.957 114.999 413 c 24
 122.269 337.396 146 252 240.999 264.5 c 1
 340.849 287.311 355.634 380.429 380.5 476 c 9
 380.5 476 430.5 628.5 363 750 c 5
 502.5 709.5 475 740 583 830 c 5
 443.5 555.5 493 494 448 237.5 c 0
 403.924 -13.7422 324.025 -210 129.025 -210 c 0
 62.7793 -210 -1.46572 -165.354 0.0253906 -99 c 24
 1.83301 -18.5625 58.9071 30.9322 135.025 57 c 24
 178.08 71.7451 219.852 21.502 219.025 -24 c 24
 218.168 -71.1562 176.666 -92.7814 132.025 -108 c 24
 110.044 -115.494 85.2442 -92.1553 87.0254 -69 c 24
 88.9453 -44.0352 93.0254 -42 138.025 -30 c 1
 108.025 -57 120.346 -52.9257 123.025 -69 c 24
 124.84 -79.8877 136.939 -88.4828 147.025 -84 c 24
 164.561 -76.2061 179.069 -64.0801 177.025 -45 c 24
 174.551 -21.9082 159.478 8.89506 138.025 0 c 24
 92.0693 -19.0547 54.9298 -46.2588 54.0254 -96 c 24
 53.2715 -137.491 94.6953 -174.777 135.025 -165 c 0
 234.025 -141 213.025 -165 294.025 39 c 1
 303.025 108 328.676 133.414 313 183.5 c 1
 254.499 165.5 215.641 128.706 155.499 147.5 c 24
 87.9736 168.602 25 202.843 25 273.5 c 0
 25 453.5 102 538 8 746 c 1
EndSplineSet
EndChar
StartChar: C
Encoding: 67 67 51
Width: 522
Flags: W
TeX: 0 0 0 0
Back
Fore
12 177 m 17
 62.6211 389.167 153.45 481.614 396 516 c 1
 476.638 529.126 517.438 447.666 489 432 c 9
 451.56 442.53 424.737 481.481 393 459 c 17
 233.046 423.106 157.071 353.722 129 177 c 9
 107.482 121.233 186.479 72.498 246 78 c 24
 352.369 87.832 392.399 158.52 486 210 c 17
 367.916 126.384 436.174 -6.74805 150 0 c 9
 62.6797 -6.0791 -25.668 97.9883 12 177 c 17
EndSplineSet
EndChar
StartChar: space
Encoding: 32 32 52
Width: 650
TeX: 0 0 0 0
Fore
234 141 m 28,0,-1
EndSplineSet
EndChar
StartChar: T
Encoding: 84 84 53
Width: 436
Flags: W
TeX: 0 0 0 0
Fore
-84 786 m 1
 164.69 767.173 330.594 768.084 585.6 789 c 1
 516 684 644 693 580.8 561 c 1
 494.98 627.805 406.562 638.009 314.399 633 c 1
 242.399 69 222.6 -30 321 -192 c 1
 196.2 -231 141.6 60 0 0 c 1
 108 159 132 51 177.6 633 c 1
 85.3408 655.917 1.9541 610.837 -84 561 c 1
 -31.2002 705 -115.2 681 -84 786 c 1
EndSplineSet
EndChar
